<?xml version="1.0" encoding="UTF-8"?>
<!DOCTYPE svg PUBLIC "-//W3C//DTD SVG 1.1//EN" "http://www.w3.org/Graphics/SVG/1.1/DTD/svg11.dtd">
<svg xmlns="http://www.w3.org/2000/svg" version="1.1" width="3508px" height="896px" style="shape-rendering:geometricPrecision; text-rendering:geometricPrecision; image-rendering:optimizeQuality; fill-rule:evenodd; clip-rule:evenodd" xmlns:xlink="http://www.w3.org/1999/xlink">
<g><path style="opacity:0.494" fill="#2b3845" d="M 596.5,133.5 C 667.138,133.229 721.971,162.229 761,220.5C 765.088,227.676 768.922,235.009 772.5,242.5C 833.293,231.65 885.127,248.317 928,292.5C 970.262,344.894 978.929,402.561 954,465.5C 928.146,519.69 885.313,550.19 825.5,557C 767.501,557.5 709.501,557.667 651.5,557.5C 651.5,542.5 651.5,527.5 651.5,512.5C 710.501,512.667 769.501,512.5 828.5,512C 870.657,502.18 899.491,477.014 915,436.5C 929.985,384.801 916.819,341.968 875.5,308C 845.214,286.896 812.214,281.23 776.5,291C 726.856,309.155 700.189,344.655 696.5,397.5C 681.167,397.5 665.833,397.5 650.5,397.5C 652.358,337.42 678.691,291.753 729.5,260.5C 708.672,218.057 675.006,191.89 628.5,182C 566.54,174.188 518.706,196.355 485,248.5C 469.327,277.524 462.994,308.524 466,341.5C 449.04,331.937 431.873,322.77 414.5,314C 380.036,307.646 357.536,321.146 347,354.5C 346.833,372.176 346.333,389.843 345.5,407.5C 316.02,389.449 289.186,392.783 265,417.5C 250.318,438.454 248.651,460.454 260,483.5C 269.86,499.349 284.026,508.849 302.5,512C 380.833,512.5 459.166,512.667 537.5,512.5C 537.5,527.833 537.5,543.167 537.5,558.5C 457.833,558.667 378.166,558.5 298.5,558C 253.861,551.104 224.361,526.27 210,483.5C 198.836,433.63 214.003,394.13 255.5,365C 270.271,356.02 286.271,351.187 303.5,350.5C 314.912,299.09 346.912,271.757 399.5,268.5C 408.581,268.845 417.581,269.845 426.5,271.5C 443.028,211.643 480.028,169.81 537.5,146C 556.7,138.928 576.367,134.762 596.5,133.5 Z"/></g>
<g><path style="opacity:0.99" fill="#2b3845" d="M 1538.5,176.5 C 1568.58,173.551 1597.58,177.718 1625.5,189C 1662.87,208.525 1684.37,239.358 1690,281.5C 1692.91,316.468 1693.24,351.468 1691,386.5C 1684.17,450.033 1649.34,487.199 1586.5,498C 1557.17,502.06 1528.5,499.393 1500.5,490C 1459.44,472.243 1435.61,441.076 1429,396.5C 1428.03,389.865 1427.36,383.199 1427,376.5C 1426.33,351.167 1426.33,325.833 1427,300.5C 1427.41,264.564 1439.91,233.731 1464.5,208C 1486.02,190.071 1510.69,179.571 1538.5,176.5 Z M 1546.5,233.5 C 1568.51,230.549 1588.51,235.382 1606.5,248C 1621.24,261.52 1629.07,278.353 1630,298.5C 1630.28,311.843 1630.78,325.177 1631.5,338.5C 1630.79,351.49 1630.29,364.49 1630,377.5C 1627.1,414.733 1607.26,436.233 1570.5,442C 1541.59,446.149 1518.09,436.982 1500,414.5C 1493.73,404.012 1490.06,392.679 1489,380.5C 1487,352.167 1487,323.833 1489,295.5C 1493.23,260.781 1512.39,240.114 1546.5,233.5 Z"/></g>
<g><path style="opacity:0.99" fill="#2b3845" d="M 1858.5,176.5 C 1888.58,173.551 1917.58,177.718 1945.5,189C 1982.87,208.525 2004.37,239.358 2010,281.5C 2012.9,316.468 2013.24,351.468 2011,386.5C 2003.96,449.865 1969.13,487.031 1906.5,498C 1877.17,502.06 1848.5,499.393 1820.5,490C 1779.44,472.243 1755.61,441.076 1749,396.5C 1748.03,389.865 1747.36,383.199 1747,376.5C 1746.33,350.833 1746.33,325.167 1747,299.5C 1751.23,228.225 1788.4,187.225 1858.5,176.5 Z M 1866.5,233.5 C 1886.55,231.006 1905.22,234.839 1922.5,245C 1937.59,256.447 1946.43,271.614 1949,290.5C 1950.59,319.141 1950.92,347.808 1950,376.5C 1947.56,414.264 1927.73,436.097 1890.5,442C 1869.8,444.741 1850.8,440.407 1833.5,429C 1818.84,416.176 1810.67,400.009 1809,380.5C 1807,352.167 1807,323.833 1809,295.5C 1813.23,260.772 1832.4,240.105 1866.5,233.5 Z"/></g>
<g><path style="opacity:0.992" fill="#2b3845" d="M 1137.5,180.5 C 1184.83,180.333 1232.17,180.5 1279.5,181C 1301.54,182.233 1321.21,189.566 1338.5,203C 1355.92,220.239 1364.59,241.239 1364.5,266C 1363.81,293.985 1351.48,314.985 1327.5,329C 1357.97,346.185 1372.14,372.352 1370,407.5C 1366.48,450.36 1343.98,477.527 1302.5,489C 1292.95,491.174 1283.28,492.507 1273.5,493C 1229.17,493.667 1184.83,493.667 1140.5,493C 1131.21,491.042 1125.04,485.542 1122,476.5C 1121.33,383.5 1121.33,290.5 1122,197.5C 1124.26,189.081 1129.42,183.415 1137.5,180.5 Z M 1192.5,228.5 C 1215.84,228.333 1239.17,228.5 1262.5,229C 1292.9,234.432 1304.4,252.266 1297,282.5C 1291.3,296.774 1280.8,304.941 1265.5,307C 1252.2,308.07 1238.86,308.57 1225.5,308.5C 1213.78,308.624 1202.11,308.124 1190.5,307C 1186.7,304.588 1184.54,301.088 1184,296.5C 1183.33,277.833 1183.33,259.167 1184,240.5C 1184.35,234.66 1187.19,230.66 1192.5,228.5 Z M 1192.5,355.5 C 1216.84,355.333 1241.17,355.5 1265.5,356C 1287.79,358.957 1300.96,371.457 1305,393.5C 1307.13,420.756 1294.96,437.589 1268.5,444C 1242.08,444.982 1215.75,444.648 1189.5,443C 1186.25,440.658 1184.41,437.491 1184,433.5C 1183.33,411.5 1183.33,389.5 1184,367.5C 1184.35,361.66 1187.19,357.66 1192.5,355.5 Z"/></g>
<g><path style="opacity:0.995" fill="#2b3845" d="M 2094.5,180.5 C 2105.17,180.333 2115.84,180.5 2126.5,181C 2131.52,183.015 2135.69,186.182 2139,190.5C 2180.08,255.669 2221.42,320.669 2263,385.5C 2263.33,322.167 2263.67,258.833 2264,195.5C 2266.83,188.667 2271.67,183.833 2278.5,181C 2287.83,180.333 2297.17,180.333 2306.5,181C 2313.91,183.408 2319.08,188.242 2322,195.5C 2322.67,289.5 2322.67,383.5 2322,477.5C 2319.11,486.536 2312.94,491.702 2303.5,493C 2294.83,493.667 2286.17,493.667 2277.5,493C 2271.19,491.759 2266.02,488.592 2262,483.5C 2220.92,419.663 2179.58,355.996 2138,292.5C 2137.67,354.167 2137.33,415.833 2137,477.5C 2134.11,486.536 2127.94,491.702 2118.5,493C 2111.17,493.667 2103.83,493.667 2096.5,493C 2087.52,491.353 2081.69,486.186 2079,477.5C 2078.33,383.833 2078.33,290.167 2079,196.5C 2081.69,188.65 2086.85,183.316 2094.5,180.5 Z"/></g>
<g><path style="opacity:0.992" fill="#2b3845" d="M 2412.5,180.5 C 2422.51,180.334 2432.51,180.5 2442.5,181C 2449.18,183.013 2454.01,187.18 2457,193.5C 2458.31,227.106 2458.98,260.773 2459,294.5C 2493.52,256.979 2528.36,219.813 2563.5,183C 2565.09,182.138 2566.75,181.471 2568.5,181C 2586.83,180.333 2605.17,180.333 2623.5,181C 2627.24,182.8 2628.9,185.8 2628.5,190C 2628.51,192.3 2628.01,194.466 2627,196.5C 2588.33,239.167 2549.67,281.833 2511,324.5C 2508.66,330.154 2509.66,335.154 2514,339.5C 2554.67,385.5 2595.33,431.5 2636,477.5C 2639.31,484.62 2637.48,489.787 2630.5,493C 2613.5,493.667 2596.5,493.667 2579.5,493C 2575.07,492.303 2571.07,490.637 2567.5,488C 2530.96,448.466 2494.8,408.632 2459,368.5C 2458.98,405.56 2458.31,442.56 2457,479.5C 2453.5,487 2447.66,491.5 2439.5,493C 2430.98,493.76 2422.48,493.593 2414,492.5C 2405.76,490.598 2400.43,485.598 2398,477.5C 2397.33,383.5 2397.33,289.5 2398,195.5C 2401.02,188.647 2405.85,183.647 2412.5,180.5 Z"/></g>
<g><path style="opacity:0.991" fill="#2b3845" d="M 2709.5,180.5 C 2774.17,180.333 2838.83,180.5 2903.5,181C 2905.94,181.774 2907.77,183.274 2909,185.5C 2910.63,198.405 2910.96,211.405 2910,224.5C 2909.31,227.196 2907.81,229.363 2905.5,231C 2857.89,232.319 2810.23,232.986 2762.5,233C 2757.93,234.573 2755.1,237.74 2754,242.5C 2753.33,261.833 2753.33,281.167 2754,300.5C 2755.17,305.667 2758.33,308.833 2763.5,310C 2806.83,310.333 2850.17,310.667 2893.5,311C 2895.59,311.792 2897.42,312.959 2899,314.5C 2900.63,327.405 2900.96,340.405 2900,353.5C 2899.23,355.939 2897.73,357.773 2895.5,359C 2850.14,359.995 2804.81,360.995 2759.5,362C 2756.53,364.1 2754.7,366.934 2754,370.5C 2753.33,390.5 2753.33,410.5 2754,430.5C 2754.71,435.105 2757.21,438.271 2761.5,440C 2810.23,440.014 2858.89,440.681 2907.5,442C 2910,443.167 2911.83,445 2913,447.5C 2913.67,460.833 2913.67,474.167 2913,487.5C 2911.5,489 2910,490.5 2908.5,492C 2842.89,493.656 2777.22,493.989 2711.5,493C 2702.52,491.353 2696.69,486.186 2694,477.5C 2693.33,383.5 2693.33,289.5 2694,195.5C 2697.11,188.225 2702.27,183.225 2709.5,180.5 Z"/></g>
<g><path style="opacity:0.989" fill="#2b3845" d="M 2991.5,180.5 C 3034.5,180.333 3077.5,180.5 3120.5,181C 3197.46,190.984 3228.29,234.151 3213,310.5C 3203.5,337.333 3185.33,355.5 3158.5,365C 3179.87,402.915 3201.37,440.748 3223,478.5C 3225.32,483.876 3224.15,488.376 3219.5,492C 3204.23,493.619 3188.9,493.952 3173.5,493C 3167.25,492.126 3162.08,489.293 3158,484.5C 3138.25,448.66 3118.75,412.66 3099.5,376.5C 3081.84,375.334 3064.18,375.167 3046.5,376C 3042.67,377.167 3040.17,379.667 3039,383.5C 3038.67,414.167 3038.33,444.833 3038,475.5C 3036.02,483.477 3031.19,488.977 3023.5,492C 3012.49,493.973 3001.49,493.973 2990.5,492C 2982.39,488.888 2977.55,483.054 2976,474.5C 2975.33,382.833 2975.33,291.167 2976,199.5C 2977.41,189.978 2982.57,183.644 2991.5,180.5 Z M 3047.5,230.5 C 3067.84,230.333 3088.17,230.5 3108.5,231C 3134.62,232.793 3149.46,246.627 3153,272.5C 3155.21,300.939 3142.38,317.772 3114.5,323C 3093.19,324.557 3071.86,324.89 3050.5,324C 3044.66,323.819 3040.83,320.985 3039,315.5C 3038.33,289.833 3038.33,264.167 3039,238.5C 3040.77,234.56 3043.61,231.893 3047.5,230.5 Z"/></g>
<g><path style="opacity:0.875" fill="#2b3845" d="M 3266.5,442.5 C 3290.82,441.654 3301.99,453.321 3300,477.5C 3292.15,496.004 3278.65,501.837 3259.5,495C 3245.03,484.898 3241.53,471.731 3249,455.5C 3253.38,449.075 3259.21,444.741 3266.5,442.5 Z M 3269.5,446.5 C 3288.65,447.479 3297.15,457.479 3295,476.5C 3290.69,489.24 3281.86,494.74 3268.5,493C 3257.01,489.732 3250.68,482.066 3249.5,470C 3251.03,457.645 3257.7,449.812 3269.5,446.5 Z M 3268.5,459.5 C 3270.86,459.337 3273.19,459.503 3275.5,460C 3279.5,462.667 3279.5,465.333 3275.5,468C 3273.19,468.497 3270.86,468.663 3268.5,468.5C 3268.5,465.5 3268.5,462.5 3268.5,459.5 Z"/></g>
<g><path style="opacity:0.99" fill="#2b3845" d="M 572.5,453.5 C 588.167,453.5 603.833,453.5 619.5,453.5C 619.5,516.833 619.5,580.167 619.5,643.5C 632.837,643.333 646.171,643.5 659.5,644C 662.394,646.909 663.227,650.409 662,654.5C 641.879,689.913 621.379,725.079 600.5,760C 596.756,760.929 593.256,760.429 590,758.5C 570,723.833 550,689.167 530,654.5C 528.622,650.013 529.788,646.513 533.5,644C 546.496,643.5 559.496,643.333 572.5,643.5C 572.5,580.167 572.5,516.833 572.5,453.5 Z"/></g>
<g><path style="opacity:0.937" fill="#2b3845" d="M 3263.5,455.5 C 3268.51,455.334 3273.51,455.501 3278.5,456C 3280.29,456.785 3281.79,457.951 3283,459.5C 3284.75,465.094 3283.25,469.427 3278.5,472.5C 3281.08,475.997 3283.42,479.664 3285.5,483.5C 3283.58,484.641 3281.58,484.808 3279.5,484C 3277.29,480.414 3274.96,476.914 3272.5,473.5C 3271.31,472.571 3269.98,472.238 3268.5,472.5C 3268.5,476.5 3268.5,480.5 3268.5,484.5C 3266.83,484.5 3265.17,484.5 3263.5,484.5C 3263.5,474.833 3263.5,465.167 3263.5,455.5 Z M 3268.5,459.5 C 3268.5,462.5 3268.5,465.5 3268.5,468.5C 3270.86,468.663 3273.19,468.497 3275.5,468C 3279.5,465.333 3279.5,462.667 3275.5,460C 3273.19,459.503 3270.86,459.337 3268.5,459.5 Z"/></g>
<g><path style="opacity:0.501" fill="#2b3846" d="M 1122.5,526.5 C 1824.17,526.5 2525.83,526.5 3227.5,526.5C 3227.5,600.833 3227.5,675.167 3227.5,749.5C 2525.83,749.5 1824.17,749.5 1122.5,749.5C 1122.5,675.167 1122.5,600.833 1122.5,526.5 Z"/></g>
<g><path style="opacity:1" fill="#fdfdfd" d="M 1222.5,547.5 C 1247.5,544.924 1270.16,550.758 1290.5,565C 1304.3,577.099 1311.14,592.266 1311,610.5C 1310.17,611.333 1309.33,612.167 1308.5,613C 1296.5,613.667 1284.5,613.667 1272.5,613C 1269.07,609.202 1266.91,604.702 1266,599.5C 1262.86,590.668 1256.69,585.168 1247.5,583C 1217.38,576.114 1201.55,587.947 1200,618.5C 1199.16,635.527 1199.5,652.527 1201,669.5C 1204.31,687.958 1215.47,697.291 1234.5,697.5C 1253.99,697.83 1265.49,688.497 1269,669.5C 1269.78,667.714 1270.95,666.214 1272.5,665C 1284.5,664.333 1296.5,664.333 1308.5,665C 1309.33,665.833 1310.17,666.667 1311,667.5C 1311.3,690.068 1301.8,707.235 1282.5,719C 1260.4,730.389 1237.06,733.723 1212.5,729C 1182.63,723.131 1164.8,705.297 1159,675.5C 1157.41,653.533 1157.08,631.533 1158,609.5C 1163.71,572.29 1185.21,551.624 1222.5,547.5 Z"/></g>
<g><path style="opacity:1" fill="#fdfdfd" d="M 1545.5,547.5 C 1567.03,545.571 1587.03,550.071 1605.5,561C 1621.23,573.297 1630.07,589.463 1632,609.5C 1632.67,629.167 1632.67,648.833 1632,668.5C 1627.62,704.546 1607.45,725.046 1571.5,730C 1559.13,730.843 1546.8,730.51 1534.5,729C 1504.2,723.035 1486.37,704.868 1481,674.5C 1479.45,654.195 1479.12,633.861 1480,613.5C 1483.95,573.712 1505.79,551.712 1545.5,547.5 Z"/></g>
<g><path style="opacity:1" fill="#fcfcfd" d="M 1342.5,550.5 C 1354.17,550.333 1365.84,550.5 1377.5,551C 1378.33,551.833 1379.17,552.667 1380,553.5C 1380.5,600.165 1380.67,646.832 1380.5,693.5C 1407.5,693.333 1434.5,693.5 1461.5,694C 1462.67,695.167 1463.83,696.333 1465,697.5C 1465.67,706.5 1465.67,715.5 1465,724.5C 1463.83,725.667 1462.67,726.833 1461.5,728C 1421.83,728.667 1382.17,728.667 1342.5,728C 1341.67,727.167 1340.83,726.333 1340,725.5C 1338.34,668.583 1338.01,611.583 1339,554.5C 1339.69,552.65 1340.86,551.316 1342.5,550.5 Z"/></g>
<g><path style="opacity:1" fill="#fcfcfd" d="M 1665.5,550.5 C 1676.84,550.333 1688.17,550.5 1699.5,551C 1701.05,552.214 1702.22,553.714 1703,555.5C 1703.33,593.833 1703.67,632.167 1704,670.5C 1707.52,688.172 1718.35,696.839 1736.5,696.5C 1753.75,696.392 1764.25,688.058 1768,671.5C 1769.29,632.196 1769.96,592.862 1770,553.5C 1770.83,552.667 1771.67,551.833 1772.5,551C 1784.17,550.333 1795.83,550.333 1807.5,551C 1808.33,551.833 1809.17,552.667 1810,553.5C 1810.95,595.192 1810.62,636.859 1809,678.5C 1801.86,708.967 1782.69,726.134 1751.5,730C 1732.2,732.405 1713.53,730.071 1695.5,723C 1674.26,710.705 1663.09,692.205 1662,667.5C 1661.33,629.833 1661.33,592.167 1662,554.5C 1663.03,552.973 1664.2,551.64 1665.5,550.5 Z"/></g>
<g><path style="opacity:1" fill="#fdfdfd" d="M 1848.5,550.5 C 1878.87,550.056 1909.2,550.556 1939.5,552C 1969.8,557.963 1987.63,576.13 1993,606.5C 1995,628.167 1995,649.833 1993,671.5C 1986.41,707.746 1964.57,726.579 1927.5,728C 1901.5,728.667 1875.5,728.667 1849.5,728C 1848.33,726.833 1847.17,725.667 1846,724.5C 1845.33,667.5 1845.33,610.5 1846,553.5C 1847.04,552.627 1847.88,551.627 1848.5,550.5 Z"/></g>
<g><path style="opacity:0.502" fill="#2b3846" d="M 1548.5,581.5 C 1576.65,579.144 1590.48,592.144 1590,620.5C 1590.78,636.857 1590.45,653.19 1589,669.5C 1585.7,687.793 1574.7,697.127 1556,697.5C 1536.39,696.888 1525.39,686.888 1523,667.5C 1522.33,648.833 1522.33,630.167 1523,611.5C 1524.59,595.427 1533.09,585.427 1548.5,581.5 Z"/></g>
<g><path style="opacity:0.502" fill="#2b3846" d="M 1886.5,583.5 C 1897.84,583.333 1909.17,583.5 1920.5,584C 1937.16,584.893 1947.33,593.393 1951,609.5C 1953,629.5 1953,649.5 1951,669.5C 1948.59,684.576 1939.76,692.743 1924.5,694C 1911.84,694.5 1899.17,694.667 1886.5,694.5C 1886.5,657.5 1886.5,620.5 1886.5,583.5 Z"/></g>
</svg>
